<?xml version="1.0" encoding="UTF-8"?><svg id="Layer_1" xmlns="http://www.w3.org/2000/svg" viewBox="0 0 23 23"><defs><style>.cls-1{fill:#fff;}</style></defs><g id="Group_30179"><g id="Group_29966"><path id="Path_30526" class="cls-1" d="m11.5,1.82l2.39,2.45-6.02,6.02-2.39-2.39L11.5,1.82Z"/><g id="Group_29961"><g id="Group_29960"><path id="Path_30527" class="cls-1" d="m11.5,1.82l2.39,2.45-6.02,6.02-2.39-2.39L11.5,1.82Z"/></g></g><path id="Path_30528" class="cls-1" d="m15.13,5.45l2.39,2.45-9.66,9.65-2.39-2.39L15.13,5.45Z"/><path id="Path_30529" class="cls-1" d="m15.13,5.45l2.39,2.45-9.66,9.65-2.39-2.39L15.13,5.45Z"/><path id="Path_30530" class="cls-1" d="m1.85,11.53l2.39,2.39,2.39-2.39-2.39-2.45-2.39,2.45Z"/><g id="Group_29963"><g id="Group_29962"><path id="Path_30531" class="cls-1" d="m4.24,9.08l2.39,2.45-2.39,2.39-2.39-2.39,2.39-2.45Z"/></g></g><path id="Path_30532" class="cls-1" d="m9.11,18.79l2.39,2.39,9.66-9.65-2.39-2.45-9.66,9.71Z"/><g id="Group_29965"><g id="Group_29964"><path id="Path_30533" class="cls-1" d="m18.76,9.08l2.39,2.45-9.66,9.65-2.39-2.39,9.66-9.71Z"/></g></g></g></g></svg>