<?xml version="1.0" encoding="UTF-8"?><svg id="Layer_1" xmlns="http://www.w3.org/2000/svg" viewBox="0 0 23 23"><defs><style>.cls-1{fill:#fff;fill-rule:evenodd;}</style></defs><g id="Group_30180"><path id="Path_30534" class="cls-1" d="m13.46,12.17h0c-.11,0-.68.04-1.94.04-1.01,0-1.72-.03-1.97-.04-3.89-.17-6.79-.85-6.79-1.66s2.9-1.49,6.79-1.66v2.65c.25.02.98.06,1.99.06,1.21,0,1.81-.05,1.92-.06v-2.65c3.88.17,6.77.85,6.77,1.66s-2.89,1.49-6.77,1.66h0Zm0-3.59v-2.37h5.41v-3.61H4.14v3.61h5.41v2.37c-4.4.2-7.71,1.07-7.71,2.12s3.31,1.92,7.71,2.12v7.59h3.91v-7.59c4.39-.2,7.69-1.07,7.69-2.12s-3.3-1.92-7.69-2.12h0Z"/></g></svg>