<?xml version="1.0" encoding="UTF-8"?><svg id="Layer_1" xmlns="http://www.w3.org/2000/svg" viewBox="0 0 23 23"><defs><style>.cls-1{fill:#fff;}</style></defs><g id="Group_30181"><g id="Group_29970"><path id="Path_30536" class="cls-1" d="m15.03,13.37c0-1.87-1.12-2.52-3.37-2.78-1.61-.21-1.93-.64-1.93-1.39s.54-1.23,1.61-1.23c.79-.12,1.54.36,1.77,1.12.06.16.21.26.37.27h.86c.2,0,.37-.15.37-.36h0v-.07c-.21-1.19-1.2-2.09-2.41-2.19v-1.28c0-.21-.16-.37-.43-.43h-.8c-.21,0-.37.16-.43.43v1.23c-1.43.05-2.57,1.2-2.62,2.62,0,1.77,1.07,2.46,3.32,2.73,1.5.27,1.98.59,1.98,1.45s-.75,1.45-1.77,1.45c-1.39,0-1.88-.59-2.03-1.39-.03-.18-.19-.32-.37-.32h-.91c-.2,0-.37.15-.37.36h0v.07c.21,1.34,1.07,2.3,2.84,2.57v1.28c0,.21.16.37.43.43h.8c.21,0,.37-.16.43-.43v-1.28c1.48-.13,2.63-1.35,2.68-2.84h0Z"/><path id="Path_30537" class="cls-1" d="m8.77,18.99c-4.15-1.52-6.29-6.12-4.76-10.28.81-2.21,2.55-3.95,4.76-4.76.21-.09.34-.31.32-.54v-.75c.02-.2-.12-.39-.32-.43-.08,0-.15.01-.21.05C3.49,3.91.69,9.33,2.3,14.4c.95,2.97,3.28,5.3,6.25,6.25.16.09.36.04.45-.12.02-.03.03-.06.04-.09.05-.05.05-.11.05-.21v-.75c-.03-.2-.15-.37-.32-.48M14.44,2.29c-.16-.09-.35-.04-.44.12-.02.03-.03.06-.04.1-.05.05-.05.11-.05.21v.75c.02.22.14.42.32.53,4.15,1.52,6.29,6.12,4.77,10.28-.81,2.21-2.55,3.96-4.77,4.77-.21.09-.34.31-.32.54v.75c-.02.2.12.39.32.43.08,0,.15-.01.21-.05,5.08-1.64,7.88-7.09,6.24-12.17-.95-2.96-3.28-5.29-6.24-6.24"/></g></g></svg>