<?xml version="1.0" encoding="UTF-8"?><svg id="Layer_2" xmlns="http://www.w3.org/2000/svg" xmlns:xlink="http://www.w3.org/1999/xlink" viewBox="0 0 175.46 102.6"><defs><style>.cls-1{fill:none;}.cls-2{fill:url(#linear-gradient);}.cls-3{clip-path:url(#clippath);}.cls-4{fill:url(#linear-gradient-137);}.cls-5{fill:url(#linear-gradient-133);}.cls-6{fill:url(#linear-gradient-132);}.cls-7{fill:url(#linear-gradient-130);}.cls-8{fill:url(#linear-gradient-135);}.cls-9{fill:url(#linear-gradient-131);}.cls-10{fill:url(#linear-gradient-136);}.cls-11{fill:url(#linear-gradient-134);}.cls-12{fill:url(#linear-gradient-139);}.cls-13{fill:url(#linear-gradient-138);}.cls-14{fill:url(#linear-gradient-117);}.cls-15{fill:url(#linear-gradient-118);}.cls-16{fill:url(#linear-gradient-111);}.cls-17{fill:url(#linear-gradient-112);}.cls-18{fill:url(#linear-gradient-127);}.cls-19{fill:url(#linear-gradient-128);}.cls-20{fill:url(#linear-gradient-110);}.cls-21{fill:url(#linear-gradient-113);}.cls-22{fill:url(#linear-gradient-114);}.cls-23{fill:url(#linear-gradient-115);}.cls-24{fill:url(#linear-gradient-116);}.cls-25{fill:url(#linear-gradient-119);}.cls-26{fill:url(#linear-gradient-106);}.cls-27{fill:url(#linear-gradient-107);}.cls-28{fill:url(#linear-gradient-109);}.cls-29{fill:url(#linear-gradient-108);}.cls-30{fill:url(#linear-gradient-104);}.cls-31{fill:url(#linear-gradient-103);}.cls-32{fill:url(#linear-gradient-102);}.cls-33{fill:url(#linear-gradient-105);}.cls-34{fill:url(#linear-gradient-123);}.cls-35{fill:url(#linear-gradient-129);}.cls-36{fill:url(#linear-gradient-122);}.cls-37{fill:url(#linear-gradient-121);}.cls-38{fill:url(#linear-gradient-101);}.cls-39{fill:url(#linear-gradient-100);}.cls-40{fill:url(#linear-gradient-126);}.cls-41{fill:url(#linear-gradient-125);}.cls-42{fill:url(#linear-gradient-124);}.cls-43{fill:url(#linear-gradient-120);}.cls-44{fill:url(#linear-gradient-157);}.cls-45{fill:url(#linear-gradient-154);}.cls-46{fill:url(#linear-gradient-152);}.cls-47{fill:url(#linear-gradient-155);}.cls-48{fill:url(#linear-gradient-151);}.cls-49{fill:url(#linear-gradient-156);}.cls-50{fill:url(#linear-gradient-150);}.cls-51{fill:url(#linear-gradient-153);}.cls-52{fill:url(#linear-gradient-161);}.cls-53{fill:url(#linear-gradient-162);}.cls-54{fill:url(#linear-gradient-160);}.cls-55{fill:url(#linear-gradient-159);}.cls-56{fill:url(#linear-gradient-158);}.cls-57{fill:url(#linear-gradient-144);}.cls-58{fill:url(#linear-gradient-145);}.cls-59{fill:url(#linear-gradient-148);}.cls-60{fill:url(#linear-gradient-149);}.cls-61{fill:url(#linear-gradient-146);}.cls-62{fill:url(#linear-gradient-143);}.cls-63{fill:url(#linear-gradient-141);}.cls-64{fill:url(#linear-gradient-140);}.cls-65{fill:url(#linear-gradient-147);}.cls-66{fill:url(#linear-gradient-142);}.cls-67{fill:url(#linear-gradient-8);}.cls-68{fill:url(#linear-gradient-9);}.cls-69{fill:url(#linear-gradient-3);}.cls-70{fill:url(#linear-gradient-4);}.cls-71{fill:url(#linear-gradient-2);}.cls-72{fill:url(#linear-gradient-6);}.cls-73{fill:url(#linear-gradient-7);}.cls-74{fill:url(#linear-gradient-5);}.cls-75{fill:url(#linear-gradient-59);}.cls-76{fill:url(#linear-gradient-57);}.cls-77{fill:url(#linear-gradient-58);}.cls-78{fill:url(#linear-gradient-55);}.cls-79{fill:url(#linear-gradient-56);}.cls-80{fill:url(#linear-gradient-53);}.cls-81{fill:url(#linear-gradient-54);}.cls-82{fill:url(#linear-gradient-51);}.cls-83{fill:url(#linear-gradient-52);}.cls-84{fill:url(#linear-gradient-50);}.cls-85{fill:url(#linear-gradient-77);}.cls-86{fill:url(#linear-gradient-78);}.cls-87{fill:url(#linear-gradient-79);}.cls-88{fill:url(#linear-gradient-74);}.cls-89{fill:url(#linear-gradient-75);}.cls-90{fill:url(#linear-gradient-76);}.cls-91{fill:url(#linear-gradient-70);}.cls-92{fill:url(#linear-gradient-71);}.cls-93{fill:url(#linear-gradient-72);}.cls-94{fill:url(#linear-gradient-73);}.cls-95{fill:url(#linear-gradient-68);}.cls-96{fill:url(#linear-gradient-67);}.cls-97{fill:url(#linear-gradient-69);}.cls-98{fill:url(#linear-gradient-64);}.cls-99{fill:url(#linear-gradient-63);}.cls-100{fill:url(#linear-gradient-66);}.cls-101{fill:url(#linear-gradient-65);}.cls-102{fill:url(#linear-gradient-60);}.cls-103{fill:url(#linear-gradient-62);}.cls-104{fill:url(#linear-gradient-61);}.cls-105{fill:url(#linear-gradient-98);}.cls-106{fill:url(#linear-gradient-91);}.cls-107{fill:url(#linear-gradient-95);}.cls-108{fill:url(#linear-gradient-99);}.cls-109{fill:url(#linear-gradient-96);}.cls-110{fill:url(#linear-gradient-97);}.cls-111{fill:url(#linear-gradient-94);}.cls-112{fill:url(#linear-gradient-92);}.cls-113{fill:url(#linear-gradient-93);}.cls-114{fill:url(#linear-gradient-90);}.cls-115{fill:url(#linear-gradient-81);}.cls-116{fill:url(#linear-gradient-80);}.cls-117{fill:url(#linear-gradient-88);}.cls-118{fill:url(#linear-gradient-89);}.cls-119{fill:url(#linear-gradient-87);}.cls-120{fill:url(#linear-gradient-86);}.cls-121{fill:url(#linear-gradient-85);}.cls-122{fill:url(#linear-gradient-84);}.cls-123{fill:url(#linear-gradient-83);}.cls-124{fill:url(#linear-gradient-82);}.cls-125{fill:url(#linear-gradient-41);}.cls-126{fill:url(#linear-gradient-40);}.cls-127{fill:url(#linear-gradient-43);}.cls-128{fill:url(#linear-gradient-42);}.cls-129{fill:url(#linear-gradient-45);}.cls-130{fill:url(#linear-gradient-46);}.cls-131{fill:url(#linear-gradient-44);}.cls-132{fill:url(#linear-gradient-49);}.cls-133{fill:url(#linear-gradient-47);}.cls-134{fill:url(#linear-gradient-48);}.cls-135{fill:url(#linear-gradient-14);}.cls-136{fill:url(#linear-gradient-18);}.cls-137{fill:url(#linear-gradient-22);}.cls-138{fill:url(#linear-gradient-20);}.cls-139{fill:url(#linear-gradient-21);}.cls-140{fill:url(#linear-gradient-23);}.cls-141{fill:url(#linear-gradient-15);}.cls-142{fill:url(#linear-gradient-19);}.cls-143{fill:url(#linear-gradient-16);}.cls-144{fill:url(#linear-gradient-17);}.cls-145{fill:url(#linear-gradient-13);}.cls-146{fill:url(#linear-gradient-12);}.cls-147{fill:url(#linear-gradient-10);}.cls-148{fill:url(#linear-gradient-11);}.cls-149{fill:url(#linear-gradient-27);}.cls-150{fill:url(#linear-gradient-24);}.cls-151{fill:url(#linear-gradient-26);}.cls-152{fill:url(#linear-gradient-38);}.cls-153{fill:url(#linear-gradient-35);}.cls-154{fill:url(#linear-gradient-37);}.cls-155{fill:url(#linear-gradient-34);}.cls-156{fill:url(#linear-gradient-39);}.cls-157{fill:url(#linear-gradient-36);}.cls-158{fill:url(#linear-gradient-25);}.cls-159{fill:url(#linear-gradient-28);}.cls-160{fill:url(#linear-gradient-29);}.cls-161{fill:url(#linear-gradient-33);}.cls-162{fill:url(#linear-gradient-30);}.cls-163{fill:url(#linear-gradient-32);}.cls-164{fill:url(#linear-gradient-31);}</style><clipPath id="clippath"><path id="Group_28648" class="cls-1" d="M36.16,102.59L6.51,13.01c-.24-1.13-1.17-1.98-2.32-2.11h-1.63c-1.41,0-2.57,1.66-2.57,3.7V102.6H36.16Zm139.3,0V14.6c0-2.04-1.15-3.7-2.57-3.7h-1.62c-1.15,.13-2.08,.98-2.32,2.11l-29.66,89.59h36.16Zm-62.36,0L91.42,2.92c-.46-2.02-2.48-3.29-4.5-2.83-1.41,.32-2.51,1.42-2.83,2.83l-21.69,99.67h50.71Z"/></clipPath><linearGradient id="linear-gradient" x1="-5869.07" y1="2852.28" x2="-5869.07" y2="2767.04" gradientTransform="translate(-2627.41 5867.48) rotate(90) scale(1 -1)" gradientUnits="userSpaceOnUse"><stop offset="0" stop-color="#7dc7ff"/><stop offset=".01" stop-color="#86c5ff"/><stop offset=".03" stop-color="#9fc1ff"/><stop offset=".05" stop-color="#c9bbff"/><stop offset=".07" stop-color="#ffb3ff"/><stop offset=".09" stop-color="#ffb5fb"/><stop offset=".11" stop-color="#ffbcef"/><stop offset=".13" stop-color="#ffc7dc"/><stop offset=".14" stop-color="#ffd1cc"/><stop offset=".17" stop-color="#ffe7d9"/><stop offset=".2" stop-color="#ffffe8"/><stop offset=".22" stop-color="#f5ffe2"/><stop offset=".25" stop-color="#dbffd4"/><stop offset=".27" stop-color="#bfffc4"/><stop offset=".31" stop-color="#9cffff"/><stop offset=".35" stop-color="#8adeff"/><stop offset=".39" stop-color="#7dc7ff"/><stop offset=".39" stop-color="#87c5ff"/><stop offset=".44" stop-color="#c7bbff"/><stop offset=".48" stop-color="#efb5ff"/><stop offset=".5" stop-color="#ffb3ff"/><stop offset=".53" stop-color="#ffb5fb"/><stop offset=".55" stop-color="#ffbcef"/><stop offset=".58" stop-color="#ffc7dc"/><stop offset=".6" stop-color="#ffd1cc"/><stop offset=".66" stop-color="#ffe7d9"/><stop offset=".71" stop-color="#ffffe8"/><stop offset=".72" stop-color="#f5ffe2"/><stop offset=".75" stop-color="#dbffd4"/><stop offset=".78" stop-color="#bfffc4"/><stop offset=".82" stop-color="#9cffff"/><stop offset=".86" stop-color="#85d6ff"/><stop offset=".87" stop-color="#7dc7ff"/><stop offset=".9" stop-color="#a5c0ff"/><stop offset=".95" stop-color="#d5b9ff"/><stop offset=".98" stop-color="#f3b4ff"/><stop offset="1" stop-color="#ffb3ff"/></linearGradient><linearGradient id="linear-gradient-2" x1="-5856.62" y1="2854.29" x2="-5856.62" y2="2769.04" xlink:href="#linear-gradient"/><linearGradient id="linear-gradient-3" x1="-5844.18" y1="2854.95" x2="-5844.18" y2="2769.71" xlink:href="#linear-gradient"/><linearGradient id="linear-gradient-4" x1="-5831.74" y1="2855.96" x2="-5831.74" y2="2770.71" xlink:href="#linear-gradient"/><linearGradient id="linear-gradient-5" x1="-5819.29" y1="2855.96" x2="-5819.29" y2="2770.71" xlink:href="#linear-gradient"/><linearGradient id="linear-gradient-6" x1="-5806.85" y1="2855.29" x2="-5806.85" y2="2770.05" xlink:href="#linear-gradient"/><linearGradient id="linear-gradient-7" x1="-5794.41" y1="2854.95" x2="-5794.41" y2="2769.71" xlink:href="#linear-gradient"/><linearGradient id="linear-gradient-8" x1="-5781.96" y1="2853.62" x2="-5781.96" y2="2768.37" xlink:href="#linear-gradient"/><linearGradient id="linear-gradient-9" x1="-5769.52" x2="-5769.52" xlink:href="#linear-gradient"/><linearGradient id="linear-gradient-10" x1="-5862.85" y1="2842.41" x2="-5862.85" y2="2757.17" xlink:href="#linear-gradient"/><linearGradient id="linear-gradient-11" x1="-5850.4" y1="2844.09" x2="-5850.4" y2="2758.84" xlink:href="#linear-gradient"/><linearGradient id="linear-gradient-12" x1="-5837.96" y1="2845.09" x2="-5837.96" y2="2759.85" xlink:href="#linear-gradient"/><linearGradient id="linear-gradient-13" x1="-5825.51" y1="2845.42" x2="-5825.51" y2="2760.18" xlink:href="#linear-gradient"/><linearGradient id="linear-gradient-14" x1="-5813.07" y1="2845.42" x2="-5813.07" y2="2760.18" xlink:href="#linear-gradient"/><linearGradient id="linear-gradient-15" x1="-5800.63" y1="2845.09" x2="-5800.63" y2="2759.85" xlink:href="#linear-gradient"/><linearGradient id="linear-gradient-16" x1="-5788.18" y1="2844.42" x2="-5788.18" y2="2759.18" xlink:href="#linear-gradient"/><linearGradient id="linear-gradient-17" x1="-5775.74" y1="2843.42" x2="-5775.74" y2="2758.17" xlink:href="#linear-gradient"/><linearGradient id="linear-gradient-18" x1="-5763.3" y1="2842.41" x2="-5763.3" y2="2757.17" xlink:href="#linear-gradient"/><linearGradient id="linear-gradient-19" y1="2831.21" y2="2745.97" xlink:href="#linear-gradient"/><linearGradient id="linear-gradient-20" x1="-5856.62" y1="2832.88" x2="-5856.62" y2="2747.64" xlink:href="#linear-gradient"/><linearGradient id="linear-gradient-21" x1="-5844.18" y1="2834.22" x2="-5844.18" y2="2748.98" xlink:href="#linear-gradient"/><linearGradient id="linear-gradient-22" x1="-5831.74" y1="2834.89" x2="-5831.74" y2="2749.65" xlink:href="#linear-gradient"/><linearGradient id="linear-gradient-23" x1="-5819.29" y1="2834.89" x2="-5819.29" y2="2749.65" xlink:href="#linear-gradient"/><linearGradient id="linear-gradient-24" x1="-5806.85" y1="2834.89" x2="-5806.85" y2="2749.65" xlink:href="#linear-gradient"/><linearGradient id="linear-gradient-25" x1="-5794.41" y1="2834.55" x2="-5794.41" y2="2749.31" xlink:href="#linear-gradient"/><linearGradient id="linear-gradient-26" x1="-5781.96" y1="2834.22" x2="-5781.96" y2="2748.98" xlink:href="#linear-gradient"/><linearGradient id="linear-gradient-27" x1="-5769.52" y1="2833.22" x2="-5769.52" y2="2747.97" xlink:href="#linear-gradient"/><linearGradient id="linear-gradient-28" x1="-5862.85" y1="2822.01" x2="-5862.85" y2="2736.77" xlink:href="#linear-gradient"/><linearGradient id="linear-gradient-29" x1="-5850.4" y1="2823.35" x2="-5850.4" y2="2738.11" xlink:href="#linear-gradient"/><linearGradient id="linear-gradient-30" x1="-5837.96" y1="2824.02" x2="-5837.96" y2="2738.78" xlink:href="#linear-gradient"/><linearGradient id="linear-gradient-31" x1="-5825.51" y1="2825.02" x2="-5825.51" y2="2739.78" xlink:href="#linear-gradient"/><linearGradient id="linear-gradient-32" x1="-5813.07" y1="2825.02" x2="-5813.07" y2="2739.78" xlink:href="#linear-gradient"/><linearGradient id="linear-gradient-33" x1="-5800.63" y1="2825.02" x2="-5800.63" y2="2739.78" xlink:href="#linear-gradient"/><linearGradient id="linear-gradient-34" x1="-5788.18" y1="2824.36" x2="-5788.18" y2="2739.11" xlink:href="#linear-gradient"/><linearGradient id="linear-gradient-35" x1="-5775.74" y1="2824.02" x2="-5775.74" y2="2738.78" xlink:href="#linear-gradient"/><linearGradient id="linear-gradient-36" x1="-5763.3" y1="2823.35" x2="-5763.3" y2="2738.11" xlink:href="#linear-gradient"/><linearGradient id="linear-gradient-37" y1="2811.15" y2="2725.9" xlink:href="#linear-gradient"/><linearGradient id="linear-gradient-38" x1="-5856.62" y1="2812.82" x2="-5856.62" y2="2727.58" xlink:href="#linear-gradient"/><linearGradient id="linear-gradient-39" x1="-5844.18" y1="2813.49" x2="-5844.18" y2="2728.24" xlink:href="#linear-gradient"/><linearGradient id="linear-gradient-40" x1="-5831.74" y1="2814.49" x2="-5831.74" y2="2729.25" xlink:href="#linear-gradient"/><linearGradient id="linear-gradient-41" x1="-5819.29" y1="2814.82" x2="-5819.29" y2="2729.58" xlink:href="#linear-gradient"/><linearGradient id="linear-gradient-42" x1="-5806.85" y1="2814.82" x2="-5806.85" y2="2729.58" xlink:href="#linear-gradient"/><linearGradient id="linear-gradient-43" x1="-5794.41" y1="2814.82" x2="-5794.41" y2="2729.58" xlink:href="#linear-gradient"/><linearGradient id="linear-gradient-44" x1="-5781.96" y1="2814.49" x2="-5781.96" y2="2729.25" xlink:href="#linear-gradient"/><linearGradient id="linear-gradient-45" x1="-5769.52" y1="2813.15" x2="-5769.52" y2="2727.91" xlink:href="#linear-gradient"/><linearGradient id="linear-gradient-46" x1="-5862.85" y1="2802.28" x2="-5862.85" y2="2717.04" xlink:href="#linear-gradient"/><linearGradient id="linear-gradient-47" x1="-5850.4" y1="2803.62" x2="-5850.4" y2="2718.38" xlink:href="#linear-gradient"/><linearGradient id="linear-gradient-48" x1="-5837.96" y1="2804.62" x2="-5837.96" y2="2719.38" xlink:href="#linear-gradient"/><linearGradient id="linear-gradient-49" x1="-5825.51" y1="2804.96" x2="-5825.51" y2="2719.72" xlink:href="#linear-gradient"/><linearGradient id="linear-gradient-50" x1="-5813.07" y1="2805.29" x2="-5813.07" y2="2720.05" xlink:href="#linear-gradient"/><linearGradient id="linear-gradient-51" x1="-5800.63" y1="2805.29" x2="-5800.63" y2="2720.05" xlink:href="#linear-gradient"/><linearGradient id="linear-gradient-52" x1="-5788.18" y1="2804.62" x2="-5788.18" y2="2719.38" xlink:href="#linear-gradient"/><linearGradient id="linear-gradient-53" x1="-5775.74" y1="2803.96" x2="-5775.74" y2="2718.71" xlink:href="#linear-gradient"/><linearGradient id="linear-gradient-54" x1="-5763.3" y1="2803.29" x2="-5763.3" y2="2718.04" xlink:href="#linear-gradient"/><linearGradient id="linear-gradient-55" y1="2792.42" y2="2707.18" xlink:href="#linear-gradient"/><linearGradient id="linear-gradient-56" x1="-5856.62" y1="2793.76" x2="-5856.62" y2="2708.51" xlink:href="#linear-gradient"/><linearGradient id="linear-gradient-57" x1="-5844.18" y1="2794.43" x2="-5844.18" y2="2709.18" xlink:href="#linear-gradient"/><linearGradient id="linear-gradient-58" x1="-5831.74" y1="2794.76" x2="-5831.74" y2="2709.52" xlink:href="#linear-gradient"/><linearGradient id="linear-gradient-59" x1="-5819.29" y1="2794.76" x2="-5819.29" y2="2709.52" xlink:href="#linear-gradient"/><linearGradient id="linear-gradient-60" x1="-5806.85" y1="2794.76" x2="-5806.85" y2="2709.52" xlink:href="#linear-gradient"/><linearGradient id="linear-gradient-61" x1="-5794.41" y1="2794.76" x2="-5794.41" y2="2709.52" xlink:href="#linear-gradient"/><linearGradient id="linear-gradient-62" x1="-5781.96" y1="2794.43" x2="-5781.96" y2="2709.18" xlink:href="#linear-gradient"/><linearGradient id="linear-gradient-63" x1="-5769.52" y1="2794.09" x2="-5769.52" y2="2708.85" xlink:href="#linear-gradient"/><linearGradient id="linear-gradient-64" x1="-5862.85" y1="2783.56" x2="-5862.85" y2="2698.31" xlink:href="#linear-gradient"/><linearGradient id="linear-gradient-65" x1="-5850.4" y1="2784.56" x2="-5850.4" y2="2699.32" xlink:href="#linear-gradient"/><linearGradient id="linear-gradient-66" x1="-5837.96" y1="2785.23" x2="-5837.96" y2="2699.99" xlink:href="#linear-gradient"/><linearGradient id="linear-gradient-67" x1="-5825.51" y1="2785.56" x2="-5825.51" y2="2700.32" xlink:href="#linear-gradient"/><linearGradient id="linear-gradient-68" x1="-5813.07" y1="2785.23" x2="-5813.07" y2="2699.99" xlink:href="#linear-gradient"/><linearGradient id="linear-gradient-69" x1="-5800.63" y1="2785.23" x2="-5800.63" y2="2699.99" xlink:href="#linear-gradient"/><linearGradient id="linear-gradient-70" x1="-5788.18" y1="2784.89" x2="-5788.18" y2="2699.65" xlink:href="#linear-gradient"/><linearGradient id="linear-gradient-71" x1="-5775.74" y1="2783.89" x2="-5775.74" y2="2698.65" xlink:href="#linear-gradient"/><linearGradient id="linear-gradient-72" x1="-5763.3" y1="2783.56" x2="-5763.3" y2="2698.31" xlink:href="#linear-gradient"/><linearGradient id="linear-gradient-73" y1="2774.36" y2="2689.12" xlink:href="#linear-gradient"/><linearGradient id="linear-gradient-74" x1="-5856.62" y1="2775.36" x2="-5856.62" y2="2690.12" xlink:href="#linear-gradient"/><linearGradient id="linear-gradient-75" x1="-5844.18" y1="2775.7" x2="-5844.18" y2="2690.45" xlink:href="#linear-gradient"/><linearGradient id="linear-gradient-76" x1="-5831.74" y1="2775.7" x2="-5831.74" y2="2690.45" xlink:href="#linear-gradient"/><linearGradient id="linear-gradient-77" x1="-5819.29" y1="2775.7" x2="-5819.29" y2="2690.45" xlink:href="#linear-gradient"/><linearGradient id="linear-gradient-78" x1="-5806.85" y1="2775.7" x2="-5806.85" y2="2690.45" xlink:href="#linear-gradient"/><linearGradient id="linear-gradient-79" x1="-5794.41" y1="2775.7" x2="-5794.41" y2="2690.45" xlink:href="#linear-gradient"/><linearGradient id="linear-gradient-80" x1="-5781.96" y1="2774.36" x2="-5781.96" y2="2689.12" xlink:href="#linear-gradient"/><linearGradient id="linear-gradient-81" x1="-5769.52" y1="2774.03" x2="-5769.52" y2="2688.78" xlink:href="#linear-gradient"/><linearGradient id="linear-gradient-82" x1="-5862.85" y1="2765.5" x2="-5862.85" y2="2680.26" xlink:href="#linear-gradient"/><linearGradient id="linear-gradient-83" x1="-5850.4" y1="2766.5" x2="-5850.4" y2="2681.26" xlink:href="#linear-gradient"/><linearGradient id="linear-gradient-84" x1="-5837.96" y1="2766.17" x2="-5837.96" y2="2680.92" xlink:href="#linear-gradient"/><linearGradient id="linear-gradient-85" x1="-5825.51" y1="2766.5" x2="-5825.51" y2="2681.26" xlink:href="#linear-gradient"/><linearGradient id="linear-gradient-86" x1="-5813.07" y1="2766.5" x2="-5813.07" y2="2681.26" xlink:href="#linear-gradient"/><linearGradient id="linear-gradient-87" x1="-5800.63" y1="2765.5" x2="-5800.63" y2="2680.26" xlink:href="#linear-gradient"/><linearGradient id="linear-gradient-88" x1="-5788.18" y1="2765.16" x2="-5788.18" y2="2679.92" xlink:href="#linear-gradient"/><linearGradient id="linear-gradient-89" x1="-5775.74" y1="2763.83" x2="-5775.74" y2="2678.58" xlink:href="#linear-gradient"/><linearGradient id="linear-gradient-90" x1="-5763.3" y1="2763.16" x2="-5763.3" y2="2677.92" xlink:href="#linear-gradient"/><linearGradient id="linear-gradient-91" y1="2756.97" y2="2671.73" xlink:href="#linear-gradient"/><linearGradient id="linear-gradient-92" x1="-5856.62" y1="2756.97" x2="-5856.62" y2="2671.73" xlink:href="#linear-gradient"/><linearGradient id="linear-gradient-93" x1="-5844.18" y1="2756.97" x2="-5844.18" y2="2671.73" xlink:href="#linear-gradient"/><linearGradient id="linear-gradient-94" x1="-5831.74" y1="2757.3" x2="-5831.74" y2="2672.06" xlink:href="#linear-gradient"/><linearGradient id="linear-gradient-95" x1="-5819.29" y1="2756.63" x2="-5819.29" y2="2671.39" xlink:href="#linear-gradient"/><linearGradient id="linear-gradient-96" x1="-5806.85" y1="2755.97" x2="-5806.85" y2="2670.72" xlink:href="#linear-gradient"/><linearGradient id="linear-gradient-97" x1="-5794.41" y1="2755.3" x2="-5794.41" y2="2670.06" xlink:href="#linear-gradient"/><linearGradient id="linear-gradient-98" x1="-5781.96" y1="2754.29" x2="-5781.96" y2="2669.05" xlink:href="#linear-gradient"/><linearGradient id="linear-gradient-99" x1="-5769.52" y1="2752.96" x2="-5769.52" y2="2667.72" xlink:href="#linear-gradient"/><linearGradient id="linear-gradient-100" x1="-5862.85" y1="2747.77" x2="-5862.85" y2="2662.53" xlink:href="#linear-gradient"/><linearGradient id="linear-gradient-101" x1="-5850.4" y1="2748.11" x2="-5850.4" y2="2662.86" xlink:href="#linear-gradient"/><linearGradient id="linear-gradient-102" x1="-5837.96" y1="2747.77" x2="-5837.96" y2="2662.53" xlink:href="#linear-gradient"/><linearGradient id="linear-gradient-103" x1="-5825.51" y1="2747.44" x2="-5825.51" y2="2662.2" xlink:href="#linear-gradient"/><linearGradient id="linear-gradient-104" x1="-5813.07" y1="2746.44" x2="-5813.07" y2="2661.19" xlink:href="#linear-gradient"/><linearGradient id="linear-gradient-105" x1="-5800.63" y1="2745.77" x2="-5800.63" y2="2660.52" xlink:href="#linear-gradient"/><linearGradient id="linear-gradient-106" x1="-5788.18" y1="2744.43" x2="-5788.18" y2="2659.19" xlink:href="#linear-gradient"/><linearGradient id="linear-gradient-107" x1="-5775.74" y1="2743.09" x2="-5775.74" y2="2657.85" xlink:href="#linear-gradient"/><linearGradient id="linear-gradient-108" x1="-5763.3" y1="2741.76" x2="-5763.3" y2="2656.51" xlink:href="#linear-gradient"/><linearGradient id="linear-gradient-109" y1="2738.91" y2="2653.67" xlink:href="#linear-gradient"/><linearGradient id="linear-gradient-110" x1="-5856.62" y1="2738.58" x2="-5856.62" y2="2653.33" xlink:href="#linear-gradient"/><linearGradient id="linear-gradient-111" x1="-5844.18" y1="2738.58" x2="-5844.18" y2="2653.33" xlink:href="#linear-gradient"/><linearGradient id="linear-gradient-112" x1="-5831.74" y1="2737.57" x2="-5831.74" y2="2652.33" xlink:href="#linear-gradient"/><linearGradient id="linear-gradient-113" x1="-5819.29" y1="2736.9" x2="-5819.29" y2="2651.66" xlink:href="#linear-gradient"/><linearGradient id="linear-gradient-114" x1="-5806.85" y1="2735.57" x2="-5806.85" y2="2650.32" xlink:href="#linear-gradient"/><linearGradient id="linear-gradient-115" x1="-5794.41" y1="2734.9" x2="-5794.41" y2="2649.66" xlink:href="#linear-gradient"/><linearGradient id="linear-gradient-116" x1="-5781.96" y1="2732.89" x2="-5781.96" y2="2647.65" xlink:href="#linear-gradient"/><linearGradient id="linear-gradient-117" x1="-5769.52" y1="2731.89" x2="-5769.52" y2="2646.65" xlink:href="#linear-gradient"/><linearGradient id="linear-gradient-118" x1="-5862.85" y1="2729.38" x2="-5862.85" y2="2644.14" xlink:href="#linear-gradient"/><linearGradient id="linear-gradient-119" x1="-5850.4" y1="2729.04" x2="-5850.4" y2="2643.8" xlink:href="#linear-gradient"/><linearGradient id="linear-gradient-120" x1="-5837.96" y1="2728.04" x2="-5837.96" y2="2642.8" xlink:href="#linear-gradient"/><linearGradient id="linear-gradient-121" x1="-5825.51" y1="2727.37" x2="-5825.51" y2="2642.13" xlink:href="#linear-gradient"/><linearGradient id="linear-gradient-122" x1="-5813.07" y1="2726.04" x2="-5813.07" y2="2640.79" xlink:href="#linear-gradient"/><linearGradient id="linear-gradient-123" x1="-5800.63" y1="2724.7" x2="-5800.63" y2="2639.46" xlink:href="#linear-gradient"/><linearGradient id="linear-gradient-124" x1="-5788.18" y1="2723.36" x2="-5788.18" y2="2638.12" xlink:href="#linear-gradient"/><linearGradient id="linear-gradient-125" x1="-5775.74" y1="2721.69" x2="-5775.74" y2="2636.45" xlink:href="#linear-gradient"/><linearGradient id="linear-gradient-126" x1="-5763.3" y1="2720.02" x2="-5763.3" y2="2634.78" xlink:href="#linear-gradient"/><linearGradient id="linear-gradient-127" y1="2719.85" y2="2634.6" xlink:href="#linear-gradient"/><linearGradient id="linear-gradient-128" x1="-5856.62" y1="2719.51" x2="-5856.62" y2="2634.27" xlink:href="#linear-gradient"/><linearGradient id="linear-gradient-129" x1="-5844.18" y1="2718.51" x2="-5844.18" y2="2633.27" xlink:href="#linear-gradient"/><linearGradient id="linear-gradient-130" x1="-5831.74" y1="2717.17" x2="-5831.74" y2="2631.93" xlink:href="#linear-gradient"/><linearGradient id="linear-gradient-131" x1="-5819.29" y1="2716.5" x2="-5819.29" y2="2631.26" xlink:href="#linear-gradient"/><linearGradient id="linear-gradient-132" x1="-5806.85" y1="2714.83" x2="-5806.85" y2="2629.59" xlink:href="#linear-gradient"/><linearGradient id="linear-gradient-133" x1="-5794.41" y1="2713.5" x2="-5794.41" y2="2628.25" xlink:href="#linear-gradient"/><linearGradient id="linear-gradient-134" x1="-5781.96" y1="2711.82" x2="-5781.96" y2="2626.58" xlink:href="#linear-gradient"/><linearGradient id="linear-gradient-135" x1="-5769.52" y1="2710.15" x2="-5769.52" y2="2624.91" xlink:href="#linear-gradient"/><linearGradient id="linear-gradient-136" x1="-5862.85" y1="2709.31" x2="-5862.85" y2="2624.07" xlink:href="#linear-gradient"/><linearGradient id="linear-gradient-137" x1="-5850.4" y1="2708.65" x2="-5850.4" y2="2623.4" xlink:href="#linear-gradient"/><linearGradient id="linear-gradient-138" x1="-5837.96" y1="2707.64" x2="-5837.96" y2="2622.4" xlink:href="#linear-gradient"/><linearGradient id="linear-gradient-139" x1="-5825.51" y1="2706.31" x2="-5825.51" y2="2621.06" xlink:href="#linear-gradient"/><linearGradient id="linear-gradient-140" x1="-5813.07" y1="2704.63" x2="-5813.07" y2="2619.39" xlink:href="#linear-gradient"/><linearGradient id="linear-gradient-141" x1="-5800.63" y1="2703.3" x2="-5800.63" y2="2618.05" xlink:href="#linear-gradient"/><linearGradient id="linear-gradient-142" x1="-5788.18" y1="2701.63" x2="-5788.18" y2="2616.38" xlink:href="#linear-gradient"/><linearGradient id="linear-gradient-143" x1="-5775.74" y1="2699.95" x2="-5775.74" y2="2614.71" xlink:href="#linear-gradient"/><linearGradient id="linear-gradient-144" x1="-5763.3" y1="2697.95" x2="-5763.3" y2="2612.71" xlink:href="#linear-gradient"/><linearGradient id="linear-gradient-145" y1="2699.45" y2="2614.21" xlink:href="#linear-gradient"/><linearGradient id="linear-gradient-146" x1="-5856.62" y1="2698.45" x2="-5856.62" y2="2613.2" xlink:href="#linear-gradient"/><linearGradient id="linear-gradient-147" x1="-5844.18" y1="2697.11" x2="-5844.18" y2="2611.87" xlink:href="#linear-gradient"/><linearGradient id="linear-gradient-148" x1="-5831.74" y1="2695.77" x2="-5831.74" y2="2610.53" xlink:href="#linear-gradient"/><linearGradient id="linear-gradient-149" x1="-5819.29" y1="2694.77" x2="-5819.29" y2="2609.53" xlink:href="#linear-gradient"/><linearGradient id="linear-gradient-150" x1="-5806.85" y1="2693.1" x2="-5806.85" y2="2607.86" xlink:href="#linear-gradient"/><linearGradient id="linear-gradient-151" x1="-5794.41" y1="2691.43" x2="-5794.41" y2="2606.18" xlink:href="#linear-gradient"/><linearGradient id="linear-gradient-152" x1="-5781.96" y1="2689.42" x2="-5781.96" y2="2604.18" xlink:href="#linear-gradient"/><linearGradient id="linear-gradient-153" x1="-5769.52" y1="2687.75" x2="-5769.52" y2="2602.51" xlink:href="#linear-gradient"/><linearGradient id="linear-gradient-154" x1="-5862.85" y1="2687.91" x2="-5862.85" y2="2602.67" xlink:href="#linear-gradient"/><linearGradient id="linear-gradient-155" x1="-5850.4" y1="2686.91" x2="-5850.4" y2="2601.67" xlink:href="#linear-gradient"/><linearGradient id="linear-gradient-156" x1="-5837.96" y1="2685.57" x2="-5837.96" y2="2600.33" xlink:href="#linear-gradient"/><linearGradient id="linear-gradient-157" x1="-5825.51" y1="2684.23" x2="-5825.51" y2="2598.99" xlink:href="#linear-gradient"/><linearGradient id="linear-gradient-158" x1="-5813.07" y1="2682.56" x2="-5813.07" y2="2597.32" xlink:href="#linear-gradient"/><linearGradient id="linear-gradient-159" x1="-5800.63" y1="2680.89" x2="-5800.63" y2="2595.65" xlink:href="#linear-gradient"/><linearGradient id="linear-gradient-160" x1="-5788.18" y1="2679.22" x2="-5788.18" y2="2593.98" xlink:href="#linear-gradient"/><linearGradient id="linear-gradient-161" x1="-5775.74" y1="2677.55" x2="-5775.74" y2="2592.31" xlink:href="#linear-gradient"/><linearGradient id="linear-gradient-162" x1="-5763.3" y1="2675.21" x2="-5763.3" y2="2589.97" xlink:href="#linear-gradient"/></defs><g id="Layer_1-2"><g class="cls-3"><g><polygon class="cls-2" points="180.08 4.64 169.21 -1.59 180.08 -7.81 190.95 -1.59 180.08 4.64"/><polygon class="cls-71" points="180.08 17.08 169.21 10.86 180.08 4.64 190.95 10.86 180.08 17.08"/><polygon class="cls-69" points="180.08 29.52 169.21 23.3 180.08 17.08 190.95 23.3 180.08 29.52"/><polygon class="cls-70" points="180.08 41.97 169.21 35.75 180.08 29.52 190.95 35.75 180.08 41.97"/><polygon class="cls-74" points="180.08 54.41 169.21 48.19 180.08 41.97 190.95 48.19 180.08 54.41"/><polygon class="cls-72" points="180.08 66.85 169.21 60.63 180.08 54.41 190.95 60.63 180.08 66.85"/><polygon class="cls-73" points="180.08 79.3 169.21 73.08 180.08 66.85 190.95 73.08 180.08 79.3"/><polygon class="cls-67" points="180.08 91.74 169.21 85.52 180.08 79.3 190.95 85.52 180.08 91.74"/><polygon class="cls-68" points="180.08 104.19 169.21 97.96 180.08 91.74 190.95 97.96 180.08 104.19"/><polygon class="cls-147" points="169.21 10.86 158.34 4.64 169.21 -1.59 180.08 4.64 169.21 10.86"/><polygon class="cls-148" points="169.21 23.3 158.34 17.08 169.21 10.86 180.08 17.08 169.21 23.3"/><polygon class="cls-146" points="169.21 35.75 158.34 29.52 169.21 23.3 180.08 29.52 169.21 35.75"/><polygon class="cls-145" points="169.21 48.19 158.34 41.97 169.21 35.75 180.08 41.97 169.21 48.19"/><polygon class="cls-135" points="169.21 60.63 158.34 54.41 169.21 48.19 180.08 54.41 169.21 60.63"/><polygon class="cls-141" points="169.21 73.08 158.34 66.85 169.21 60.63 180.08 66.85 169.21 73.08"/><polygon class="cls-143" points="169.21 85.52 158.34 79.3 169.21 73.08 180.08 79.3 169.21 85.52"/><polygon class="cls-144" points="169.21 97.96 158.34 91.74 169.21 85.52 180.08 91.74 169.21 97.96"/><polygon class="cls-136" points="169.21 110.41 158.34 104.19 169.21 97.96 180.08 104.19 169.21 110.41"/><polygon class="cls-142" points="158.34 4.64 147.47 -1.59 158.34 -7.81 169.21 -1.59 158.34 4.64"/><polygon class="cls-138" points="158.34 17.08 147.47 10.86 158.34 4.64 169.21 10.86 158.34 17.08"/><polygon class="cls-139" points="158.34 29.52 147.47 23.3 158.34 17.08 169.21 23.3 158.34 29.52"/><polygon class="cls-137" points="158.34 41.97 147.47 35.75 158.34 29.52 169.21 35.75 158.34 41.97"/><polygon class="cls-140" points="158.34 54.41 147.47 48.19 158.34 41.97 169.21 48.19 158.34 54.41"/><polygon class="cls-150" points="158.34 66.85 147.47 60.63 158.34 54.41 169.21 60.63 158.34 66.85"/><polygon class="cls-158" points="158.34 79.3 147.47 73.08 158.34 66.85 169.21 73.08 158.34 79.3"/><polygon class="cls-151" points="158.34 91.74 147.47 85.52 158.34 79.3 169.21 85.52 158.34 91.74"/><polygon class="cls-149" points="158.34 104.19 147.47 97.96 158.34 91.74 169.21 97.96 158.34 104.19"/><polygon class="cls-159" points="147.47 10.86 136.61 4.64 147.47 -1.59 158.34 4.64 147.47 10.86"/><polygon class="cls-160" points="147.47 23.3 136.61 17.08 147.47 10.86 158.34 17.08 147.47 23.3"/><polygon class="cls-162" points="147.47 35.75 136.61 29.52 147.47 23.3 158.34 29.52 147.47 35.75"/><polygon class="cls-164" points="147.47 48.19 136.61 41.97 147.47 35.75 158.34 41.97 147.47 48.19"/><polygon class="cls-163" points="147.47 60.63 136.61 54.41 147.47 48.19 158.34 54.41 147.47 60.63"/><polygon class="cls-161" points="147.47 73.08 136.61 66.85 147.47 60.63 158.34 66.85 147.47 73.08"/><polygon class="cls-155" points="147.47 85.52 136.61 79.3 147.47 73.08 158.34 79.3 147.47 85.52"/><polygon class="cls-153" points="147.47 97.96 136.61 91.74 147.47 85.52 158.34 91.74 147.47 97.96"/><polygon class="cls-157" points="147.47 110.41 136.61 104.19 147.47 97.96 158.34 104.19 147.47 110.41"/><polygon class="cls-154" points="136.61 4.64 125.74 -1.59 136.61 -7.81 147.47 -1.59 136.61 4.64"/><polygon class="cls-152" points="136.61 17.08 125.74 10.86 136.61 4.64 147.47 10.86 136.61 17.08"/><polygon class="cls-156" points="136.61 29.52 125.74 23.3 136.61 17.08 147.47 23.3 136.61 29.52"/><polygon class="cls-126" points="136.61 41.97 125.74 35.75 136.61 29.52 147.47 35.75 136.61 41.97"/><polygon class="cls-125" points="136.61 54.41 125.74 48.19 136.61 41.97 147.47 48.19 136.61 54.41"/><polygon class="cls-128" points="136.61 66.85 125.74 60.63 136.61 54.41 147.47 60.63 136.61 66.85"/><polygon class="cls-127" points="136.61 79.3 125.74 73.08 136.61 66.85 147.47 73.08 136.61 79.3"/><polygon class="cls-131" points="136.61 91.74 125.74 85.52 136.61 79.3 147.47 85.52 136.61 91.74"/><polygon class="cls-129" points="136.61 104.19 125.74 97.96 136.61 91.74 147.47 97.96 136.61 104.19"/><polygon class="cls-130" points="125.74 10.86 114.87 4.64 125.74 -1.59 136.61 4.64 125.74 10.86"/><polygon class="cls-133" points="125.74 23.3 114.87 17.08 125.74 10.86 136.61 17.08 125.74 23.3"/><polygon class="cls-134" points="125.74 35.75 114.87 29.52 125.74 23.3 136.61 29.52 125.74 35.75"/><polygon class="cls-132" points="125.74 48.19 114.87 41.97 125.74 35.75 136.61 41.97 125.74 48.19"/><polygon class="cls-84" points="125.74 60.63 114.87 54.41 125.74 48.19 136.61 54.41 125.74 60.63"/><polygon class="cls-82" points="125.74 73.08 114.87 66.85 125.74 60.63 136.61 66.85 125.74 73.08"/><polygon class="cls-83" points="125.74 85.52 114.87 79.3 125.74 73.08 136.61 79.3 125.74 85.52"/><polygon class="cls-80" points="125.74 97.96 114.87 91.74 125.74 85.52 136.61 91.74 125.74 97.96"/><polygon class="cls-81" points="125.74 110.41 114.87 104.19 125.74 97.96 136.61 104.19 125.74 110.41"/><polygon class="cls-78" points="114.87 4.64 104 -1.59 114.87 -7.81 125.74 -1.59 114.87 4.64"/><polygon class="cls-79" points="114.87 17.08 104 10.86 114.87 4.64 125.74 10.86 114.87 17.08"/><polygon class="cls-76" points="114.87 29.52 104 23.3 114.87 17.08 125.74 23.3 114.87 29.52"/><polygon class="cls-77" points="114.87 41.97 104 35.75 114.87 29.52 125.74 35.75 114.87 41.97"/><polygon class="cls-75" points="114.87 54.41 104 48.19 114.87 41.97 125.74 48.19 114.87 54.41"/><polygon class="cls-102" points="114.87 66.85 104 60.63 114.87 54.41 125.74 60.63 114.87 66.85"/><polygon class="cls-104" points="114.87 79.3 104 73.08 114.87 66.85 125.74 73.08 114.87 79.3"/><polygon class="cls-103" points="114.87 91.74 104 85.52 114.87 79.3 125.74 85.52 114.87 91.74"/><polygon class="cls-99" points="114.87 104.19 104 97.96 114.87 91.74 125.74 97.96 114.87 104.19"/><polygon class="cls-98" points="104 10.86 93.13 4.64 104 -1.59 114.87 4.64 104 10.86"/><polygon class="cls-101" points="104 23.3 93.13 17.08 104 10.86 114.87 17.08 104 23.3"/><polygon class="cls-100" points="104 35.75 93.13 29.52 104 23.3 114.87 29.52 104 35.75"/><polygon class="cls-96" points="104 48.19 93.13 41.97 104 35.75 114.87 41.97 104 48.19"/><polygon class="cls-95" points="104 60.63 93.13 54.41 104 48.19 114.87 54.41 104 60.63"/><polygon class="cls-97" points="104 73.08 93.13 66.85 104 60.63 114.87 66.85 104 73.08"/><polygon class="cls-91" points="104 85.52 93.13 79.3 104 73.08 114.87 79.3 104 85.52"/><polygon class="cls-92" points="104 97.96 93.13 91.74 104 85.52 114.87 91.74 104 97.96"/><polygon class="cls-93" points="104 110.41 93.13 104.19 104 97.96 114.87 104.19 104 110.41"/><polygon class="cls-94" points="93.13 4.64 82.27 -1.59 93.13 -7.81 104 -1.59 93.13 4.64"/><polygon class="cls-88" points="93.13 17.08 82.27 10.86 93.13 4.64 104 10.86 93.13 17.08"/><polygon class="cls-89" points="93.13 29.52 82.27 23.3 93.13 17.08 104 23.3 93.13 29.52"/><polygon class="cls-90" points="93.13 41.97 82.27 35.75 93.13 29.52 104 35.75 93.13 41.97"/><polygon class="cls-85" points="93.13 54.41 82.27 48.19 93.13 41.97 104 48.19 93.13 54.41"/><polygon class="cls-86" points="93.13 66.85 82.27 60.63 93.13 54.41 104 60.63 93.13 66.85"/><polygon class="cls-87" points="93.13 79.3 82.27 73.08 93.13 66.85 104 73.08 93.13 79.3"/><polygon class="cls-116" points="93.13 91.74 82.27 85.52 93.13 79.3 104 85.52 93.13 91.74"/><polygon class="cls-115" points="93.13 104.19 82.27 97.96 93.13 91.74 104 97.96 93.13 104.19"/><polygon class="cls-124" points="82.27 10.86 71.4 4.64 82.27 -1.59 93.13 4.64 82.27 10.86"/><polygon class="cls-123" points="82.27 23.3 71.4 17.08 82.27 10.86 93.13 17.08 82.27 23.3"/><polygon class="cls-122" points="82.27 35.75 71.4 29.52 82.27 23.3 93.13 29.52 82.27 35.75"/><polygon class="cls-121" points="82.27 48.19 71.4 41.97 82.27 35.75 93.13 41.97 82.27 48.19"/><polygon class="cls-120" points="82.27 60.63 71.4 54.41 82.27 48.19 93.13 54.41 82.27 60.63"/><polygon class="cls-119" points="82.27 73.08 71.4 66.85 82.27 60.63 93.13 66.85 82.27 73.08"/><polygon class="cls-117" points="82.27 85.52 71.4 79.3 82.27 73.08 93.13 79.3 82.27 85.52"/><polygon class="cls-118" points="82.27 97.96 71.4 91.74 82.27 85.52 93.13 91.74 82.27 97.96"/><polygon class="cls-114" points="82.27 110.41 71.4 104.19 82.27 97.96 93.13 104.19 82.27 110.41"/><polygon class="cls-106" points="71.4 4.64 60.53 -1.59 71.4 -7.81 82.27 -1.59 71.4 4.64"/><polygon class="cls-112" points="71.4 17.08 60.53 10.86 71.4 4.64 82.27 10.86 71.4 17.08"/><polygon class="cls-113" points="71.4 29.52 60.53 23.3 71.4 17.08 82.27 23.3 71.4 29.52"/><polygon class="cls-111" points="71.4 41.97 60.53 35.75 71.4 29.52 82.27 35.75 71.4 41.97"/><polygon class="cls-107" points="71.4 54.41 60.53 48.19 71.4 41.97 82.27 48.19 71.4 54.41"/><polygon class="cls-109" points="71.4 66.85 60.53 60.63 71.4 54.41 82.27 60.63 71.4 66.85"/><polygon class="cls-110" points="71.4 79.3 60.53 73.08 71.4 66.85 82.27 73.08 71.4 79.3"/><polygon class="cls-105" points="71.4 91.74 60.53 85.52 71.4 79.3 82.27 85.52 71.4 91.74"/><polygon class="cls-108" points="71.4 104.19 60.53 97.96 71.4 91.74 82.27 97.96 71.4 104.19"/><polygon class="cls-39" points="60.53 10.86 49.66 4.64 60.53 -1.59 71.4 4.64 60.53 10.86"/><polygon class="cls-38" points="60.53 23.3 49.66 17.08 60.53 10.86 71.4 17.08 60.53 23.3"/><polygon class="cls-32" points="60.53 35.75 49.66 29.52 60.53 23.3 71.4 29.52 60.53 35.75"/><polygon class="cls-31" points="60.53 48.19 49.66 41.97 60.53 35.75 71.4 41.97 60.53 48.19"/><polygon class="cls-30" points="60.53 60.63 49.66 54.41 60.53 48.19 71.4 54.41 60.53 60.63"/><polygon class="cls-33" points="60.53 73.08 49.66 66.85 60.53 60.63 71.4 66.85 60.53 73.08"/><polygon class="cls-26" points="60.53 85.52 49.66 79.3 60.53 73.08 71.4 79.3 60.53 85.52"/><polygon class="cls-27" points="60.53 97.96 49.66 91.74 60.53 85.52 71.4 91.74 60.53 97.96"/><polygon class="cls-29" points="60.53 110.41 49.66 104.19 60.53 97.96 71.4 104.19 60.53 110.41"/><polygon class="cls-28" points="49.66 4.64 38.79 -1.59 49.66 -7.81 60.53 -1.59 49.66 4.64"/><polygon class="cls-20" points="49.66 17.08 38.79 10.86 49.66 4.64 60.53 10.86 49.66 17.08"/><polygon class="cls-16" points="49.66 29.52 38.79 23.3 49.66 17.08 60.53 23.3 49.66 29.52"/><polygon class="cls-17" points="49.66 41.97 38.79 35.75 49.66 29.52 60.53 35.75 49.66 41.97"/><polygon class="cls-21" points="49.66 54.41 38.79 48.19 49.66 41.97 60.53 48.19 49.66 54.41"/><polygon class="cls-22" points="49.66 66.85 38.79 60.63 49.66 54.41 60.53 60.63 49.66 66.85"/><polygon class="cls-23" points="49.66 79.3 38.79 73.08 49.66 66.85 60.53 73.08 49.66 79.3"/><polygon class="cls-24" points="49.66 91.74 38.79 85.52 49.66 79.3 60.53 85.52 49.66 91.74"/><polygon class="cls-14" points="49.66 104.19 38.79 97.96 49.66 91.74 60.53 97.96 49.66 104.19"/><polygon class="cls-15" points="38.79 10.86 27.92 4.64 38.79 -1.59 49.66 4.64 38.79 10.86"/><polygon class="cls-25" points="38.79 23.3 27.92 17.08 38.79 10.86 49.66 17.08 38.79 23.3"/><polygon class="cls-43" points="38.79 35.75 27.92 29.52 38.79 23.3 49.66 29.52 38.79 35.75"/><polygon class="cls-37" points="38.79 48.19 27.92 41.97 38.79 35.75 49.66 41.97 38.79 48.19"/><polygon class="cls-36" points="38.79 60.63 27.92 54.41 38.79 48.19 49.66 54.41 38.79 60.63"/><polygon class="cls-34" points="38.79 73.08 27.92 66.85 38.79 60.63 49.66 66.85 38.79 73.08"/><polygon class="cls-42" points="38.79 85.52 27.92 79.3 38.79 73.08 49.66 79.3 38.79 85.52"/><polygon class="cls-41" points="38.79 97.96 27.92 91.74 38.79 85.52 49.66 91.74 38.79 97.96"/><polygon class="cls-40" points="38.79 110.41 27.92 104.19 38.79 97.96 49.66 104.19 38.79 110.41"/><polygon class="cls-18" points="27.92 4.64 17.06 -1.59 27.92 -7.81 38.79 -1.59 27.92 4.64"/><polygon class="cls-19" points="27.92 17.08 17.06 10.86 27.92 4.64 38.79 10.86 27.92 17.08"/><polygon class="cls-35" points="27.92 29.52 17.06 23.3 27.92 17.08 38.79 23.3 27.92 29.52"/><polygon class="cls-7" points="27.92 41.97 17.06 35.75 27.92 29.52 38.79 35.75 27.92 41.97"/><polygon class="cls-9" points="27.92 54.41 17.06 48.19 27.92 41.97 38.79 48.19 27.92 54.41"/><polygon class="cls-6" points="27.92 66.85 17.06 60.63 27.92 54.41 38.79 60.63 27.92 66.85"/><polygon class="cls-5" points="27.92 79.3 17.06 73.08 27.92 66.85 38.79 73.08 27.92 79.3"/><polygon class="cls-11" points="27.92 91.74 17.06 85.52 27.92 79.3 38.79 85.52 27.92 91.74"/><polygon class="cls-8" points="27.92 104.19 17.06 97.96 27.92 91.74 38.79 97.96 27.92 104.19"/><polygon class="cls-10" points="17.06 10.86 6.19 4.64 17.06 -1.59 27.92 4.64 17.06 10.86"/><polygon class="cls-4" points="17.06 23.3 6.19 17.08 17.06 10.86 27.92 17.08 17.06 23.3"/><polygon class="cls-13" points="17.06 35.75 6.19 29.52 17.06 23.3 27.92 29.52 17.06 35.75"/><polygon class="cls-12" points="17.06 48.19 6.19 41.97 17.06 35.75 27.92 41.97 17.06 48.19"/><polygon class="cls-64" points="17.06 60.63 6.19 54.41 17.06 48.19 27.92 54.41 17.06 60.63"/><polygon class="cls-63" points="17.06 73.08 6.19 66.85 17.06 60.63 27.92 66.85 17.06 73.08"/><polygon class="cls-66" points="17.06 85.52 6.19 79.3 17.06 73.08 27.92 79.3 17.06 85.52"/><polygon class="cls-62" points="17.06 97.96 6.19 91.74 17.06 85.52 27.92 91.74 17.06 97.96"/><polygon class="cls-57" points="17.06 110.41 6.19 104.19 17.06 97.96 27.92 104.19 17.06 110.41"/><polygon class="cls-58" points="6.19 4.64 -4.68 -1.59 6.19 -7.81 17.06 -1.59 6.19 4.64"/><polygon class="cls-61" points="6.19 17.08 -4.68 10.86 6.19 4.64 17.06 10.86 6.19 17.08"/><polygon class="cls-65" points="6.19 29.52 -4.68 23.3 6.19 17.08 17.06 23.3 6.19 29.52"/><polygon class="cls-59" points="6.19 41.97 -4.68 35.75 6.19 29.52 17.06 35.75 6.19 41.97"/><polygon class="cls-60" points="6.19 54.41 -4.68 48.19 6.19 41.97 17.06 48.19 6.19 54.41"/><polygon class="cls-50" points="6.19 66.85 -4.68 60.63 6.19 54.41 17.06 60.63 6.19 66.85"/><polygon class="cls-48" points="6.19 79.3 -4.68 73.08 6.19 66.85 17.06 73.08 6.19 79.3"/><polygon class="cls-46" points="6.19 91.74 -4.68 85.52 6.19 79.3 17.06 85.52 6.19 91.74"/><polygon class="cls-51" points="6.19 104.19 -4.68 97.96 6.19 91.74 17.06 97.96 6.19 104.19"/><polygon class="cls-45" points="-4.68 10.86 -15.55 4.64 -4.68 -1.59 6.19 4.64 -4.68 10.86"/><polygon class="cls-47" points="-4.68 23.3 -15.55 17.08 -4.68 10.86 6.19 17.08 -4.68 23.3"/><polygon class="cls-49" points="-4.68 35.75 -15.55 29.52 -4.68 23.3 6.19 29.52 -4.68 35.75"/><polygon class="cls-44" points="-4.68 48.19 -15.55 41.97 -4.68 35.75 6.19 41.97 -4.68 48.19"/><polygon class="cls-56" points="-4.68 60.63 -15.55 54.41 -4.68 48.19 6.19 54.41 -4.68 60.63"/><polygon class="cls-55" points="-4.68 73.08 -15.55 66.85 -4.68 60.63 6.19 66.85 -4.68 73.08"/><polygon class="cls-54" points="-4.68 85.52 -15.55 79.3 -4.68 73.08 6.19 79.3 -4.68 85.52"/><polygon class="cls-52" points="-4.68 97.96 -15.55 91.74 -4.68 85.52 6.19 91.74 -4.68 97.96"/><polygon class="cls-53" points="-4.68 110.41 -15.55 104.19 -4.68 97.96 6.19 104.19 -4.68 110.41"/></g></g></g></svg>