<?xml version="1.0" encoding="UTF-8"?><svg id="Layer_1" xmlns="http://www.w3.org/2000/svg" viewBox="0 0 50 50"><defs><style>.cls-1{fill:#ffe3fd;}</style></defs><g id="Group_30178"><g id="Group_30177"><path id="Path_31080" class="cls-1" d="m14.45,41.65l10.55-6.32,10.55,6.38-2.82-11.96,9.27-8.07-12.23-1.07-4.77-11.29-4.77,11.22-12.23,1.07,9.28,8.07-2.82,11.96Zm10.55-1.61l-12.5,7.53c-.34.22-.74.32-1.14.3-.39-.02-.76-.15-1.07-.37-.31-.22-.56-.52-.71-.87-.16-.38-.19-.81-.1-1.21l3.29-14.24L1.75,21.55c-.33-.26-.55-.63-.64-1.04-.07-.37-.06-.75.03-1.11.09-.36.3-.68.6-.91.33-.25.73-.41,1.14-.44l14.58-1.28,5.65-13.44c.16-.38.44-.7.81-.91.66-.4,1.49-.4,2.15,0,.36.2.65.52.81.91l5.65,13.44,14.58,1.28c.42.03.81.18,1.14.44.3.23.51.55.6.91.09.36.1.74.03,1.11-.08.41-.31.78-.64,1.04l-11.02,9.61,3.29,14.25c.09.4.06.83-.1,1.21-.15.35-.4.65-.71.87-.31.22-.69.35-1.08.37-.4.02-.8-.08-1.14-.3l-12.5-7.53Z"/></g></g></svg>