<?xml version="1.0" encoding="UTF-8"?><svg id="Layer_1" xmlns="http://www.w3.org/2000/svg" viewBox="0 0 50 50"><defs><style>.cls-1{fill:#ffe3fd;}</style></defs><g id="Group_30176"><g id="Group_30175"><path id="Path_31079" class="cls-1" d="m25,29.49c-1.22-.02-2.19-1.03-2.16-2.25.02-1.22,1.03-2.19,2.25-2.16,1.22.02,2.19,1.03,2.16,2.25-.01.57-.24,1.12-.65,1.52-.42.43-1,.66-1.6.65m-8.98,0c-1.24-.02-2.22-1.04-2.21-2.28s1.04-2.22,2.28-2.21c.57,0,1.12.24,1.53.64.89.86.9,2.28.04,3.17-.43.44-1.02.69-1.64.68m17.97,0c-1.22-.02-2.19-1.03-2.16-2.25.02-1.22,1.03-2.19,2.25-2.16,1.22.02,2.19,1.03,2.16,2.25-.01.57-.24,1.12-.65,1.52-.42.43-1,.66-1.6.65m-8.98,8.98c-1.22-.02-2.19-1.03-2.16-2.25.02-1.22,1.03-2.19,2.25-2.16s2.19,1.03,2.16,2.25c-.01.57-.24,1.12-.65,1.52-.42.43-1,.66-1.6.65m-8.98,0c-1.24-.02-2.22-1.04-2.21-2.28s1.04-2.22,2.28-2.21c.57,0,1.12.24,1.53.64.89.86.9,2.28.04,3.17-.43.44-1.02.69-1.64.68m17.97,0c-1.22-.02-2.19-1.03-2.16-2.25.02-1.22,1.03-2.19,2.25-2.16s2.19,1.03,2.16,2.25c-.01.57-.24,1.12-.65,1.52-.42.43-1,.66-1.6.65m-25.83,8.98c-.89,0-1.74-.36-2.36-1.01-.65-.61-1.01-1.47-1.01-2.36V9.28c0-.89.36-1.74,1.01-2.36.61-.65,1.47-1.01,2.36-1.01h3.65v-1.57c-.04-.96.71-1.76,1.67-1.8.04,0,.09,0,.13,0,.49-.01.96.17,1.32.51.35.33.55.8.53,1.29v1.57h19.09v-1.57c-.04-.96.71-1.76,1.67-1.8.04,0,.09,0,.13,0,.49-.01.96.17,1.32.51.35.33.55.8.53,1.29v1.57h3.65c.89,0,1.74.36,2.36,1.01.65.61,1.01,1.47,1.01,2.36v34.81c-.05,1.84-1.53,3.32-3.37,3.37H8.16Zm0-3.37h33.69v-24.15H8.16v24.15Zm0-27.51h33.69v-7.3H8.16v7.3Zm0,0h0Z"/></g></g></svg>